# xmcd
#
# Track frame offsets:
#	150
#	11838
#	31253
#	53428
#	75344
#	94879
#	110003
#	126773
#	153204
#	178966
#	190420
#	219800
#	265993
#	302145
#	325883
#
# Disc length: 4531 seconds
#
# Revision: 2
# Processed by: cddbd v1.5.2PL0 Copyright (c) Steve Scherf et al.
# Submitted via: EasyCDDAExtractor 11.1.0.1
#
DISCID=c311b10f
DTITLE=Various Artist - Revolution Blues
DYEAR=2018
DGENRE=Blues
TTITLE0=Billy Bragg - The World Turned Upside Down
TTITLE1=McCarthy - The Home Secretary Briefs The Forces Of Law And Order
TTITLE2=Sleater-Kinney - Entertain
TTITLE3=Yoko Ono - Woman Power
TTITLE4=MC5 - Motor City Is Burning
TTITLE5=Gil Scott-Heron - Home Is Where The Hatred Is
TTITLE6=Curtis Mayfield - Hard Times
TTITLE7=Ali Farka Touré - Yenna
TTITLE8=Atamina - No One Wants To Die
TTITLE9=The Last Poets - Black Is
TTITLE10=Misty In Roots - Ghetto Of The City (live)
TTITLE11=Fela Kuti And Africa 70 - Sorrow Tears And Blood
TTITLE12=Boscoe - We Ain't Free
TTITLE13=Mike Ladd - Feb. 4 '99 (For All Those Killed By Cops)
TTITLE14=Woody Guthrie - Better World A-Comin'
EXTD=
EXTT0=
EXTT1=
EXTT2=
EXTT3=
EXTT4=
EXTT5=
EXTT6=
EXTT7=
EXTT8=
EXTT9=
EXTT10=
EXTT11=
EXTT12=
EXTT13=
EXTT14=
PLAYORDER=
